<svg width="1280" height="1694" viewBox="0 0 1280 1694" fill="none" xmlns="http://www.w3.org/2000/svg">
<g clip-path="url(#clip0_622_252)">
<rect width="1280" height="1694" fill="black"/>
<g filter="url(#filter0_f_622_252)">
<path d="M474.128 -263.945C571.584 -214.63 788.027 -255.782 806.645 -33.1575C832.44 275.274 234.65 428.597 -40.1113 434.447C-417.392 387.19 -233.599 -19.1319 -94.5421 -216.386C-3.57816 -295.141 188.093 -408.684 474.128 -263.945Z" fill="url(#paint0_linear_622_252)" fill-opacity="0.5">
  <!-- <animateTransform
    attributeName="transform"
    attributeType="XML"
    type="translate"
    values="0,0; 200,150; -150,200; 100,-100; -200,50; 0,0"
    dur="15s"
    repeatCount="indefinite"/> -->
</path>
</g>
<g filter="url(#filter1_f_622_252)">
<path d="M946.719 -270.206C1046.98 -296.297 1175.08 -461.402 1328.04 -314.758C1539.96 -111.593 1211.04 372.62 1019.3 549.22C721.327 752.39 597.034 348.07 572.134 120.513C587.4 7.41391 652.456 -193.629 946.719 -270.206Z" fill="url(#paint1_linear_622_252)" fill-opacity="0.5">
  <!-- <animateTransform
    attributeName="transform"
    attributeType="XML"
    type="translate"
    values="0,0; -180,120; 150,-180; -100,250; 220,-80; 0,0"
    dur="18s"
    repeatCount="indefinite"/> -->
</path>
</g>
<g filter="url(#filter2_f_622_252)">
<path d="M569.125 238.573C651.096 301.924 860.072 302.262 837.639 512.97C806.559 804.893 222.305 840.907 -34.6889 797.264C-377.693 685.832 -133.885 340.171 30.8942 181.269C129.701 124.159 328.536 52.637 569.125 238.573Z" fill="#FFF7E1" fill-opacity="0.5">
  <!-- <animateTransform
    attributeName="transform"
    attributeType="XML"
    type="translate"
    values="0,0; 120,-200; -250,80; 180,180; -80,-150; 0,0"
    dur="16s"
    repeatCount="indefinite"/> -->
</path>
</g>
</g>
<defs>
<filter id="filter0_f_622_252" x="-663.857" y="-733.568" width="1871.31" height="1568.02" filterUnits="userSpaceOnUse" color-interpolation-filters="sRGB">
<feFlood flood-opacity="0" result="BackgroundImageFix"/>
<feBlend mode="normal" in="SourceGraphic" in2="BackgroundImageFix" result="shape"/>
<feGaussianBlur stdDeviation="200" result="effect1_foregroundBlur_622_252"/>
</filter>
<filter id="filter1_f_622_252" x="172.134" y="-774.736" width="1624.55" height="1779.35" filterUnits="userSpaceOnUse" color-interpolation-filters="sRGB">
<feFlood flood-opacity="0" result="BackgroundImageFix"/>
<feBlend mode="normal" in="SourceGraphic" in2="BackgroundImageFix" result="shape"/>
<feGaussianBlur stdDeviation="200" result="effect1_foregroundBlur_622_252"/>
</filter>
<filter id="filter2_f_622_252" x="-608.146" y="-281.298" width="1847.46" height="1493.92" filterUnits="userSpaceOnUse" color-interpolation-filters="sRGB">
<feFlood flood-opacity="0" result="BackgroundImageFix"/>
<feBlend mode="normal" in="SourceGraphic" in2="BackgroundImageFix" result="shape"/>
<feGaussianBlur stdDeviation="200" result="effect1_foregroundBlur_622_252"/>
</filter>
<linearGradient id="paint0_linear_622_252" x1="808.581" y1="-10.0175" x2="-275.832" y2="80.6747" gradientUnits="userSpaceOnUse">
<stop stop-color="#FF0062"/>
</linearGradient>
<linearGradient id="paint1_linear_622_252" x1="1343.94" y1="-299.516" x2="629.636" y2="445.557" gradientUnits="userSpaceOnUse">
<stop stop-color="#FF0000"/>
</linearGradient>
<clipPath id="clip0_622_252">
<rect width="1280" height="1694" fill="white"/>
</clipPath>
</defs>
</svg>
